<mxfile host="Electron" agent="Mozilla/5.0 (Windows NT 10.0; Win64; x64) AppleWebKit/537.36 (KHTML, like Gecko) draw.io/25.0.2 Chrome/128.0.6613.186 Electron/32.2.5 Safari/537.36" version="25.0.2">
  <diagram name="Page-1" id="HU9_5bxrUcMix1oa-wrD">
    <mxGraphModel dx="880" dy="1632" grid="1" gridSize="10" guides="1" tooltips="1" connect="1" arrows="1" fold="1" page="1" pageScale="1" pageWidth="850" pageHeight="1100" math="0" shadow="0">
      <root>
        <mxCell id="0" />
        <mxCell id="1" parent="0" />
        <mxCell id="VbD2d7Rf8cB0ElvTnFZz-1" value="SELECTION OF TOP 15" style="swimlane;whiteSpace=wrap;html=1;startSize=20;" parent="1" vertex="1">
          <mxGeometry x="40" y="80" width="200" height="240" as="geometry" />
        </mxCell>
        <mxCell id="VbD2d7Rf8cB0ElvTnFZz-2" value="Swimwear (PJ)&lt;div&gt;&lt;br&gt;&lt;div&gt;Closed Door (PJ)&lt;/div&gt;&lt;div&gt;&lt;br&gt;&lt;/div&gt;&lt;div&gt;Production / Theme&lt;/div&gt;&lt;div&gt;&lt;br&gt;&lt;/div&gt;&lt;div&gt;Evening Gown&lt;/div&gt;&lt;div&gt;&lt;br&gt;&lt;/div&gt;&lt;div&gt;Attitude / Personality&lt;/div&gt;&lt;div&gt;&lt;br&gt;&lt;/div&gt;&lt;div&gt;Beauty and Projection&lt;/div&gt;&lt;div&gt;--------------------------------&lt;/div&gt;&lt;/div&gt;" style="text;html=1;align=left;verticalAlign=top;whiteSpace=wrap;rounded=0;fontStyle=1" parent="VbD2d7Rf8cB0ElvTnFZz-1" vertex="1">
          <mxGeometry x="10" y="30" width="130" height="200" as="geometry" />
        </mxCell>
        <mxCell id="VbD2d7Rf8cB0ElvTnFZz-3" value="15%&lt;div&gt;&lt;br&gt;&lt;div&gt;15%&lt;/div&gt;&lt;div&gt;&lt;br&gt;&lt;/div&gt;&lt;div&gt;10%&lt;/div&gt;&lt;div&gt;&lt;br&gt;&lt;/div&gt;&lt;div&gt;10%&lt;/div&gt;&lt;div&gt;&lt;br&gt;&lt;/div&gt;&lt;div&gt;10%&lt;/div&gt;&lt;div&gt;&lt;br&gt;&lt;/div&gt;&lt;div&gt;40%&lt;/div&gt;&lt;div&gt;-----------&lt;/div&gt;&lt;div&gt;100%&lt;/div&gt;&lt;/div&gt;" style="text;html=1;align=left;verticalAlign=top;whiteSpace=wrap;rounded=0;fontStyle=1" parent="VbD2d7Rf8cB0ElvTnFZz-1" vertex="1">
          <mxGeometry x="140" y="30" width="50" height="200" as="geometry" />
        </mxCell>
        <mxCell id="VbD2d7Rf8cB0ElvTnFZz-10" style="edgeStyle=orthogonalEdgeStyle;rounded=0;orthogonalLoop=1;jettySize=auto;html=1;entryX=0;entryY=0.5;entryDx=0;entryDy=0;" parent="1" source="VbD2d7Rf8cB0ElvTnFZz-5" target="VbD2d7Rf8cB0ElvTnFZz-6" edge="1">
          <mxGeometry relative="1" as="geometry" />
        </mxCell>
        <mxCell id="VbD2d7Rf8cB0ElvTnFZz-5" value="CARRY OVER 40% AS &quot;T_15&quot;" style="rounded=0;whiteSpace=wrap;html=1;fontStyle=1" parent="1" vertex="1">
          <mxGeometry x="40" y="320" width="200" height="20" as="geometry" />
        </mxCell>
        <mxCell id="VbD2d7Rf8cB0ElvTnFZz-6" value="SELECTION OF TOP 10" style="swimlane;whiteSpace=wrap;html=1;startSize=20;" parent="1" vertex="1">
          <mxGeometry x="280" y="80" width="200" height="170" as="geometry" />
        </mxCell>
        <mxCell id="VbD2d7Rf8cB0ElvTnFZz-7" value="T_15&lt;div&gt;&lt;br&gt;&lt;/div&gt;&lt;div&gt;Beauty&lt;/div&gt;&lt;div&gt;&lt;br&gt;&lt;/div&gt;&lt;div&gt;Body Proportion and Physique&lt;/div&gt;&lt;div&gt;&lt;div&gt;--------------------------------&lt;/div&gt;&lt;/div&gt;" style="text;html=1;align=left;verticalAlign=top;whiteSpace=wrap;rounded=0;fontStyle=1" parent="VbD2d7Rf8cB0ElvTnFZz-6" vertex="1">
          <mxGeometry x="10" y="30" width="130" height="130" as="geometry" />
        </mxCell>
        <mxCell id="VbD2d7Rf8cB0ElvTnFZz-8" value="40%&lt;div&gt;&lt;br&gt;&lt;/div&gt;&lt;div&gt;30%&lt;/div&gt;&lt;div&gt;&lt;br&gt;&lt;/div&gt;&lt;div&gt;30%&lt;/div&gt;&lt;div&gt;&lt;br&gt;&lt;div&gt;-----------&lt;/div&gt;&lt;div&gt;100%&lt;/div&gt;&lt;/div&gt;" style="text;html=1;align=left;verticalAlign=top;whiteSpace=wrap;rounded=0;fontStyle=1" parent="VbD2d7Rf8cB0ElvTnFZz-6" vertex="1">
          <mxGeometry x="140" y="30" width="50" height="130" as="geometry" />
        </mxCell>
        <mxCell id="VbD2d7Rf8cB0ElvTnFZz-11" value="SELECTION OF TOP 5" style="swimlane;whiteSpace=wrap;html=1;startSize=20;" parent="1" vertex="1">
          <mxGeometry x="520" y="80" width="200" height="130" as="geometry" />
        </mxCell>
        <mxCell id="VbD2d7Rf8cB0ElvTnFZz-12" value="Beauty and Personality&lt;div&gt;&lt;br&gt;&lt;/div&gt;&lt;div&gt;Intelligence&lt;br&gt;&lt;div&gt;&lt;div&gt;--------------------------------&lt;/div&gt;&lt;/div&gt;&lt;/div&gt;" style="text;html=1;align=left;verticalAlign=top;whiteSpace=wrap;rounded=0;fontStyle=1" parent="VbD2d7Rf8cB0ElvTnFZz-11" vertex="1">
          <mxGeometry x="10" y="30" width="130" height="100" as="geometry" />
        </mxCell>
        <mxCell id="VbD2d7Rf8cB0ElvTnFZz-13" value="&lt;div&gt;60%&lt;/div&gt;&lt;div&gt;&lt;br&gt;&lt;/div&gt;&lt;div&gt;&lt;br&gt;&lt;/div&gt;&lt;div&gt;40%&lt;br&gt;&lt;div&gt;-----------&lt;/div&gt;&lt;div&gt;100%&lt;/div&gt;&lt;/div&gt;" style="text;html=1;align=left;verticalAlign=top;whiteSpace=wrap;rounded=0;fontStyle=1" parent="VbD2d7Rf8cB0ElvTnFZz-11" vertex="1">
          <mxGeometry x="140" y="30" width="50" height="100" as="geometry" />
        </mxCell>
        <mxCell id="VbD2d7Rf8cB0ElvTnFZz-15" value="FINAL ROUND - WINNERS" style="swimlane;whiteSpace=wrap;html=1;startSize=20;" parent="1" vertex="1">
          <mxGeometry x="760" y="80" width="200" height="130" as="geometry" />
        </mxCell>
        <mxCell id="VbD2d7Rf8cB0ElvTnFZz-16" value="Beauty and Personality&lt;div&gt;&lt;br&gt;&lt;/div&gt;&lt;div&gt;Intelligence&lt;br&gt;&lt;div&gt;&lt;div&gt;--------------------------------&lt;/div&gt;&lt;/div&gt;&lt;/div&gt;" style="text;html=1;align=left;verticalAlign=top;whiteSpace=wrap;rounded=0;fontStyle=1" parent="VbD2d7Rf8cB0ElvTnFZz-15" vertex="1">
          <mxGeometry x="10" y="30" width="130" height="100" as="geometry" />
        </mxCell>
        <mxCell id="VbD2d7Rf8cB0ElvTnFZz-17" value="&lt;div&gt;60%&lt;/div&gt;&lt;div&gt;&lt;br&gt;&lt;/div&gt;&lt;div&gt;&lt;br&gt;&lt;/div&gt;&lt;div&gt;40%&lt;br&gt;&lt;div&gt;-----------&lt;/div&gt;&lt;div&gt;100%&lt;/div&gt;&lt;/div&gt;" style="text;html=1;align=left;verticalAlign=top;whiteSpace=wrap;rounded=0;fontStyle=1" parent="VbD2d7Rf8cB0ElvTnFZz-15" vertex="1">
          <mxGeometry x="140" y="30" width="50" height="100" as="geometry" />
        </mxCell>
        <mxCell id="VbD2d7Rf8cB0ElvTnFZz-18" value="SELECTION OF TOP 15" style="swimlane;whiteSpace=wrap;html=1;startSize=20;" parent="1" vertex="1">
          <mxGeometry x="40" y="-240" width="200" height="240" as="geometry" />
        </mxCell>
        <mxCell id="VbD2d7Rf8cB0ElvTnFZz-19" value="Swimwear (PJ)&lt;div&gt;&lt;br&gt;&lt;div&gt;Closed Door (PJ)&lt;/div&gt;&lt;div&gt;&lt;br&gt;&lt;/div&gt;&lt;div&gt;Production / Theme&lt;/div&gt;&lt;div&gt;&lt;br&gt;&lt;/div&gt;&lt;div&gt;Evening Gown&lt;/div&gt;&lt;div&gt;&lt;br&gt;&lt;/div&gt;&lt;div&gt;Attitude / Personality&lt;/div&gt;&lt;div&gt;&lt;br&gt;&lt;/div&gt;&lt;div&gt;Beauty and Projection&lt;/div&gt;&lt;div&gt;--------------------------------&lt;/div&gt;&lt;/div&gt;" style="text;html=1;align=left;verticalAlign=top;whiteSpace=wrap;rounded=0;fontStyle=1" parent="VbD2d7Rf8cB0ElvTnFZz-18" vertex="1">
          <mxGeometry x="10" y="30" width="130" height="200" as="geometry" />
        </mxCell>
        <mxCell id="VbD2d7Rf8cB0ElvTnFZz-20" value="15%&lt;div&gt;&lt;br&gt;&lt;div&gt;15%&lt;/div&gt;&lt;div&gt;&lt;br&gt;&lt;/div&gt;&lt;div&gt;10%&lt;/div&gt;&lt;div&gt;&lt;br&gt;&lt;/div&gt;&lt;div&gt;10%&lt;/div&gt;&lt;div&gt;&lt;br&gt;&lt;/div&gt;&lt;div&gt;10%&lt;/div&gt;&lt;div&gt;&lt;br&gt;&lt;/div&gt;&lt;div&gt;40%&lt;/div&gt;&lt;div&gt;-----------&lt;/div&gt;&lt;div&gt;100%&lt;/div&gt;&lt;/div&gt;" style="text;html=1;align=left;verticalAlign=top;whiteSpace=wrap;rounded=0;fontStyle=1" parent="VbD2d7Rf8cB0ElvTnFZz-18" vertex="1">
          <mxGeometry x="140" y="30" width="50" height="200" as="geometry" />
        </mxCell>
        <mxCell id="VbD2d7Rf8cB0ElvTnFZz-21" value="CARRY OVER 40% AS &quot;T_15&quot;" style="rounded=0;whiteSpace=wrap;html=1;fontStyle=1" parent="1" vertex="1">
          <mxGeometry x="40" width="200" height="20" as="geometry" />
        </mxCell>
      </root>
    </mxGraphModel>
  </diagram>
</mxfile>
